<?xml version="1.0" standalone="no"?>
<!DOCTYPE svg PUBLIC "-//W3C//DTD SVG 20010904//EN"
 "http://www.w3.org/TR/2001/REC-SVG-20010904/DTD/svg10.dtd">
<svg version="1.0" xmlns="http://www.w3.org/2000/svg"
 width="277.000000pt" height="73.000000pt" viewBox="0 0 277.000000 73.000000"
 preserveAspectRatio="xMidYMid meet">

<g transform="translate(0.000000,73.000000) scale(0.100000,-0.100000)"
fill="#000000" stroke="none">
<path d="M1290 685 c-65 -20 -126 -76 -147 -134 l-17 -48 -190 -7 c-798 -28
-1122 -111 -701 -180 113 -19 270 -33 499 -46 98 -5 181 -12 184 -15 3 -3 -35
-5 -84 -5 -262 0 -694 -49 -766 -86 -127 -66 197 -118 902 -146 356 -14 416
-14 780 0 515 20 797 49 913 94 63 24 16 58 -114 82 -154 28 -477 56 -648 56
-139 0 -86 10 115 20 330 18 590 50 660 82 26 12 31 30 12 46 -51 42 -410 82
-874 98 l-190 7 -17 48 c-22 60 -82 114 -151 134 -60 18 -107 18 -166 0z"/>
</g>
</svg>
