<?xml version="1.0" standalone="no"?>
<!DOCTYPE svg PUBLIC "-//W3C//DTD SVG 20010904//EN"
 "http://www.w3.org/TR/2001/REC-SVG-20010904/DTD/svg10.dtd">
<svg version="1.0" xmlns="http://www.w3.org/2000/svg"
 width="1300.000000pt" height="1300.000000pt" viewBox="0 0 1300.000000 1300.000000"
 preserveAspectRatio="xMidYMid meet">

<g transform="translate(0.000000,1300.000000) scale(0.100000,-0.100000)"
fill="#000000" stroke="none">
<path d="M6123 11215 c-313 -57 -556 -266 -659 -568 -120 -353 22 -758 339
-965 142 -93 284 -135 457 -136 240 -1 444 87 612 262 91 96 147 187 187 307
42 127 56 249 42 361 -15 114 -61 250 -113 339 -55 93 -201 239 -296 295 -170
100 -381 139 -569 105z"/>
<path d="M6865 9558 c-71 -54 -236 -134 -330 -158 -44 -11 -124 -26 -178 -32
-218 -25 -473 41 -663 169 l-59 40 -94 -130 c-222 -306 -486 -610 -578 -664
-43 -25 -46 -25 -120 -13 -152 24 -363 106 -623 243 -175 91 -175 91 -250 91
-86 1 -132 -19 -189 -78 -19 -20 -39 -36 -45 -36 -5 0 -375 135 -821 300 -446
165 -821 300 -834 300 -55 0 -101 -50 -101 -110 0 -70 -4 -68 815 -370 418
-155 797 -295 843 -312 72 -27 84 -35 99 -66 31 -66 86 -106 280 -204 385
-196 649 -280 888 -281 139 -1 223 22 327 93 89 59 238 193 328 295 36 40 68
74 73 74 4 1 7 -128 7 -285 l0 -286 32 7 c51 12 523 8 658 -4 228 -22 416 -55
598 -107 l22 -6 0 347 0 347 48 -53 c225 -252 319 -341 480 -451 238 -162 584
-346 667 -355 64 -8 129 5 169 32 l36 24 432 -294 c481 -329 471 -324 534
-261 36 36 44 74 23 119 -7 16 -173 135 -449 323 -435 297 -438 299 -444 339
-9 52 -37 113 -70 152 -17 20 -69 52 -140 86 -249 120 -501 278 -623 392 -119
109 -599 667 -672 781 l-27 41 -49 -39z"/>
<path d="M5740 7970 c-274 -15 -510 -55 -676 -115 -96 -34 -174 -77 -174 -95
0 -38 183 -113 376 -154 221 -46 382 -60 704 -60 320 0 483 14 701 60 188 39
346 102 370 146 30 55 -275 157 -596 198 -97 12 -415 30 -505 28 -36 0 -126
-4 -200 -8z"/>
<path d="M1910 5392 l0 -2158 -386 -743 c-212 -409 -388 -749 -391 -757 -4
-11 13 -14 88 -14 l94 0 345 665 c189 366 347 662 351 657 4 -4 161 -302 348
-662 l339 -655 97 -3 97 -3 -85 163 c-47 90 -225 432 -396 762 l-311 598 0
2154 0 2154 -95 0 -95 0 0 -2158z"/>
<path d="M4892 7093 l3 -438 53 -31 c252 -151 1005 -215 1564 -134 233 34 452
101 511 155 l27 26 0 431 c0 405 -1 430 -17 425 -10 -3 -54 -19 -99 -36 -313
-115 -902 -159 -1412 -105 -236 24 -446 70 -561 120 -29 13 -57 24 -62 24 -5
0 -8 -188 -7 -437z"/>
<path d="M3135 6949 c-317 -27 -647 -112 -715 -184 -29 -31 -19 -45 64 -84
134 -65 393 -119 671 -142 184 -15 660 -6 815 16 283 39 516 109 572 172 17
19 17 20 -5 41 -80 75 -398 154 -726 181 -153 13 -527 12 -676 0z"/>
<path d="M8230 6949 c-324 -28 -620 -102 -709 -177 l-34 -28 23 -22 c68 -63
288 -128 570 -167 158 -22 623 -31 814 -16 343 28 649 104 733 183 22 21 22
22 5 41 -70 78 -381 157 -737 187 -140 11 -527 11 -665 -1z"/>
<path d="M11050 4955 l0 -1726 -390 -750 c-214 -413 -390 -753 -390 -755 0 -2
42 -4 93 -4 l93 0 344 665 c190 366 347 665 350 665 3 -1 160 -300 349 -665
l343 -665 94 0 94 0 -21 42 c-12 24 -190 367 -395 764 l-374 720 0 1717 0
1717 -95 0 -95 0 0 -1725z"/>
<path d="M2400 6086 l0 -434 30 -25 c63 -53 284 -120 500 -151 383 -55 872
-47 1215 21 l80 16 70 95 c39 52 114 141 168 197 l97 103 0 307 c0 242 -3 306
-12 302 -275 -121 -659 -175 -1168 -164 -404 8 -726 58 -914 141 -32 14 -60
26 -62 26 -2 0 -4 -195 -4 -434z"/>
<path d="M7490 6159 l1 -364 80 -95 c44 -52 87 -107 96 -122 20 -32 67 -48
248 -83 207 -40 339 -50 675 -49 329 0 460 11 670 54 138 29 285 78 338 114
l47 31 3 438 c1 240 0 437 -2 437 -2 0 -30 -12 -62 -26 -188 -83 -510 -133
-914 -141 -509 -11 -893 43 -1167 164 -10 4 -13 -71 -13 -358z"/>
<path d="M5770 6263 c-248 -37 -382 -73 -558 -148 -562 -241 -992 -773 -1111
-1375 -20 -103 -45 -320 -37 -328 2 -2 27 41 55 96 312 607 917 1027 1601
1112 109 13 391 13 500 -1 692 -85 1301 -515 1614 -1137 20 -40 38 -72 39 -72
6 0 -4 127 -19 232 -31 223 -122 484 -237 681 -301 511 -804 849 -1388 932
-94 13 -391 19 -459 8z"/>
<path d="M5830 5449 c-576 -38 -1118 -354 -1445 -844 -329 -492 -411 -1096
-224 -1660 257 -777 989 -1305 1809 -1305 651 0 1245 326 1610 885 212 325
324 769 292 1158 -22 267 -83 485 -202 722 -345 688 -1063 1095 -1840 1044z"/>
</g>
</svg>
