<?xml version="1.0" standalone="no"?>
<!DOCTYPE svg PUBLIC "-//W3C//DTD SVG 20010904//EN"
 "http://www.w3.org/TR/2001/REC-SVG-20010904/DTD/svg10.dtd">
<svg version="1.0" xmlns="http://www.w3.org/2000/svg"
 width="278.000000pt" height="28.000000pt" viewBox="0 0 278.000000 28.000000"
 preserveAspectRatio="xMidYMid meet">

<g transform="translate(0.000000,28.000000) scale(0.100000,-0.100000)"
fill="#000000" stroke="none">
<path d="M1290 272 c0 -5 -116 -12 -257 -16 -592 -15 -963 -61 -963 -120 0
-52 333 -94 930 -118 356 -14 416 -14 780 0 603 23 940 65 940 118 0 59 -378
106 -972 121 -148 3 -268 10 -268 15 0 4 -43 8 -95 8 -52 0 -95 -4 -95 -8z"/>
</g>
</svg>
