<?xml version="1.0" standalone="no"?>
<!DOCTYPE svg PUBLIC "-//W3C//DTD SVG 20010904//EN"
 "http://www.w3.org/TR/2001/REC-SVG-20010904/DTD/svg10.dtd">
<svg version="1.0" xmlns="http://www.w3.org/2000/svg"
 width="276.000000pt" height="105.000000pt" viewBox="0 0 276.000000 105.000000"
 preserveAspectRatio="xMidYMid meet">

<g transform="translate(0.000000,105.000000) scale(0.100000,-0.100000)"
fill="#000000" stroke="none">
<path d="M1275 816 c-80 -21 -121 -42 -171 -88 -52 -48 -83 -106 -84 -155 0
-31 -2 -33 -35 -33 -72 0 -335 -31 -475 -56 -355 -64 -528 -167 -436 -259 199
-199 1359 -289 2126 -165 251 41 463 113 504 172 36 51 7 102 -83 147 -149 75
-384 122 -786 159 l-79 7 -8 42 c-3 23 -14 55 -22 71 -24 47 -109 117 -173
141 -72 28 -205 37 -278 17z"/>
</g>
</svg>
